<?xml version="1.0" standalone="no"?>
<!DOCTYPE svg PUBLIC "-//W3C//DTD SVG 20010904//EN"
 "http://www.w3.org/TR/2001/REC-SVG-20010904/DTD/svg10.dtd">
<svg version="1.0" xmlns="http://www.w3.org/2000/svg"
 width="128.000000pt" height="128.000000pt" viewBox="0 0 128.000000 128.000000"
 preserveAspectRatio="xMidYMid meet">

<g transform="translate(0.000000,128.000000) scale(0.100000,-0.100000)"
fill="#000000" stroke="none">
<path d="M570 1041 c-200 -65 -407 -248 -510 -452 -61 -120 -74 -212 -40 -286
39 -86 128 -105 237 -49 l50 25 60 -19 c174 -54 573 -54 756 1 158 47 204 170
102 269 -30 29 -37 32 -45 20 -6 -10 -2 -22 14 -40 108 -116 27 -210 -204
-240 -172 -22 -532 -6 -618 27 -23 9 -23 10 22 47 42 34 49 37 77 27 58 -20
99 23 99 103 0 24 10 42 43 74 l43 43 13 -28 c8 -15 16 -59 19 -96 4 -57 9
-71 30 -87 31 -25 43 -25 76 1 23 18 26 27 26 87 -1 39 -9 90 -20 122 -10 30
-17 56 -16 58 2 2 25 -1 52 -5 47 -8 50 -11 77 -62 21 -42 27 -69 27 -118 0
-50 4 -67 20 -83 44 -44 109 -10 111 58 2 52 -1 92 -8 126 -5 25 -3 28 13 21
44 -18 54 -17 54 2 0 33 -190 92 -300 93 -25 0 -55 3 -67 6 -21 6 -21 7 13 60
71 111 84 199 37 255 -51 60 -136 75 -243 40z m181 -37 c39 -20 60 -69 50
-115 -20 -88 -95 -191 -257 -354 -222 -225 -369 -310 -455 -265 -29 16 -49 64
-49 117 0 47 16 123 26 123 19 0 75 -34 107 -64 26 -25 46 -36 67 -36 35 0 70
31 70 60 0 29 -80 112 -134 139 -26 12 -46 25 -46 28 0 3 11 21 25 39 24 31
26 32 67 22 51 -11 114 -46 147 -82 43 -46 121 -22 121 37 0 26 -55 97 -75 97
-27 0 -25 -19 6 -54 32 -37 33 -66 3 -66 -9 0 -36 18 -61 40 -27 23 -68 47
-100 57 l-54 17 25 25 c25 24 25 24 67 8 66 -26 85 -1 23 31 l-36 18 36 32
c20 18 44 32 54 32 33 -1 106 -41 153 -85 27 -25 58 -45 69 -45 27 0 70 43 70
71 0 22 -93 122 -134 145 -17 9 -13 12 30 26 63 21 147 22 185 2z m-220 -73
c59 -38 102 -85 97 -107 -6 -32 -32 -26 -80 20 -26 24 -67 52 -93 61 l-46 18
28 18 c37 25 41 24 94 -10z m222 -325 c42 -89 41 -212 -1 -204 -13 2 -19 18
-24 65 -4 34 -16 83 -27 109 -16 36 -19 50 -9 61 18 22 42 11 61 -31z m233 14
c36 0 70 -166 41 -204 -25 -33 -47 -14 -47 42 0 44 -13 102 -36 156 -6 16 -4
18 10 13 10 -4 24 -7 32 -7z m-835 -40 c48 -25 119 -87 119 -105 0 -7 -7 -18
-15 -25 -12 -10 -22 -6 -55 23 -21 20 -57 45 -79 57 -38 19 -40 22 -29 45 13
30 10 30 59 5z m369 -165 c-13 -15 -40 -21 -40 -8 0 4 10 18 23 31 18 20 23
21 25 7 2 -9 -2 -22 -8 -30z"/>
</g>
</svg>
