<?xml version="1.0" standalone="no"?>
<!DOCTYPE svg PUBLIC "-//W3C//DTD SVG 20010904//EN"
 "http://www.w3.org/TR/2001/REC-SVG-20010904/DTD/svg10.dtd">
<svg version="1.0" xmlns="http://www.w3.org/2000/svg"
 width="225.000000pt" height="225.000000pt" viewBox="0 0 225.000000 225.000000"
 preserveAspectRatio="xMidYMid meet">

<g transform="translate(0.000000,225.000000) scale(0.100000,-0.100000)"
fill="#000000" stroke="none">
<path d="M1222 2235 c-37 -16 -62 -64 -62 -117 0 -18 -3 -49 -6 -69 l-6 -36
-102 -6 c-271 -14 -438 -172 -454 -429 l-5 -88 -46 0 c-26 0 -52 -5 -59 -12
-8 -8 -12 -52 -12 -134 0 -137 -2 -134 79 -134 l47 0 52 -530 c56 -575 57
-579 122 -633 53 -45 85 -49 377 -45 l271 3 43 30 c79 55 75 38 137 635 l56
540 47 0 c81 0 79 -3 79 134 0 82 -4 126 -12 134 -7 7 -34 12 -60 12 l-48 0 0
54 c0 129 -40 236 -121 321 -60 63 -164 120 -237 130 -85 12 -82 9 -76 78 11
108 8 107 194 107 l160 0 0 35 0 35 -162 0 c-119 -1 -172 -5 -196 -15z m-83
-317 c0 -13 -10 -113 -22 -223 l-23 -200 -218 -3 -219 -2 6 85 c7 105 36 173
101 243 75 80 174 117 324 121 48 1 52 -1 51 -21z m232 -20 c139 -64 218 -192
219 -355 l0 -53 -210 0 -210 0 0 28 c0 16 9 109 20 208 11 98 20 185 20 193 0
21 95 9 161 -21z m339 -548 l0 -70 -585 0 -585 0 0 70 0 70 585 0 585 0 0 -70z
m-130 -162 c-1 -79 -109 -1038 -119 -1056 -7 -13 -27 -32 -44 -42 -30 -18 -52
-20 -292 -20 -240 0 -262 2 -292 20 -18 10 -39 29 -47 42 -11 17 -29 163 -66
531 -27 280 -50 517 -50 528 0 19 11 19 455 19 l455 0 0 -22z"/>
<path d="M820 455 c-9 -11 -8 -36 5 -117 19 -111 34 -152 64 -168 11 -5 56
-10 100 -10 67 0 82 3 90 18 18 34 -3 47 -86 52 l-78 5 -18 105 c-10 57 -23
110 -29 117 -14 17 -33 16 -48 -2z"/>
</g>
</svg>
