<?xml version="1.0" standalone="no"?>
<!DOCTYPE svg PUBLIC "-//W3C//DTD SVG 20010904//EN"
 "http://www.w3.org/TR/2001/REC-SVG-20010904/DTD/svg10.dtd">
<svg version="1.0" xmlns="http://www.w3.org/2000/svg"
 width="128.000000pt" height="128.000000pt" viewBox="0 0 128.000000 128.000000"
 preserveAspectRatio="xMidYMid meet">

<g transform="translate(0.000000,128.000000) scale(0.100000,-0.100000)"
fill="#000000" stroke="none">
<path d="M507 1189 l-47 -50 50 -50 50 -50 50 50 50 50 -50 51 c-28 27 -52 50
-53 49 -1 -1 -23 -23 -50 -50z m76 -37 c15 -16 15 -19 -3 -30 -16 -10 -24 -10
-40 0 -18 11 -18 14 -3 30 9 10 19 18 23 18 4 0 14 -8 23 -18z"/>
<path d="M962 1172 c-101 -36 -112 -70 -63 -189 21 -52 30 -94 36 -169 4 -54
13 -135 21 -179 9 -52 14 -159 14 -308 l0 -229 29 -29 c36 -36 73 -37 106 -4
l25 24 0 218 c0 156 4 241 16 298 8 44 18 127 21 185 5 87 11 119 39 189 39
96 40 108 18 139 -42 60 -170 87 -262 54z m197 -51 c25 -13 41 -28 40 -39 0
-9 -13 -48 -28 -87 -22 -53 -34 -71 -50 -73 -21 -3 -22 -1 -15 48 6 47 5 52
-12 48 -13 -2 -21 -18 -29 -53 -12 -52 -16 -49 -30 23 -5 24 -12 32 -23 30
-17 -4 -19 -18 -8 -70 5 -24 2 -28 -17 -28 -19 0 -27 12 -50 73 -40 105 -37
113 39 142 50 19 129 13 183 -14z m-29 -300 l0 -60 -37 -3 c-49 -4 -53 -32 -5
-36 37 -4 36 0 21 -93 l-12 -69 -43 0 c-32 0 -44 4 -48 18 -8 28 -24 151 -31
230 l-6 72 80 0 81 0 0 -59z m-40 -509 c0 -215 -3 -232 -42 -232 -33 0 -38 34
-38 239 l0 201 40 0 40 0 0 -208z"/>
<path d="M647 1009 l-47 -50 50 -50 50 -50 50 50 50 50 -50 51 c-28 27 -52 50
-53 49 -1 -1 -23 -23 -50 -50z m76 -37 c15 -16 15 -19 -3 -30 -16 -10 -24 -10
-40 0 -18 11 -18 14 -3 30 9 10 19 18 23 18 4 0 14 -8 23 -18z"/>
<path d="M427 889 l-47 -50 50 -50 50 -50 50 50 50 50 -50 51 c-28 27 -52 50
-53 49 -1 -1 -23 -23 -50 -50z m76 -37 c15 -16 15 -19 -3 -30 -16 -10 -24 -10
-40 0 -18 11 -18 14 -3 30 9 10 19 18 23 18 4 0 14 -8 23 -18z"/>
<path d="M752 638 c-8 -8 -12 -50 -12 -123 0 -62 -4 -115 -10 -121 -7 -7 -9
-74 -8 -180 l3 -169 95 0 95 0 3 169 c1 106 -1 173 -8 180 -5 5 -10 49 -10 96
0 97 -12 123 -66 146 -41 17 -66 18 -82 2z m91 -56 c14 -12 17 -32 17 -99 l0
-83 -40 0 -40 0 0 106 c0 105 0 105 23 98 12 -3 30 -13 40 -22z m37 -242 c0
-18 -7 -20 -60 -20 -53 0 -60 2 -60 20 0 18 7 20 60 20 53 0 60 -2 60 -20z m0
-160 l0 -100 -60 0 -60 0 0 100 0 100 60 0 60 0 0 -100z"/>
<path d="M267 623 c-62 -21 -126 -78 -157 -139 -26 -52 -33 -146 -17 -211 8
-31 7 -33 -18 -33 -75 0 -18 -149 72 -186 45 -19 381 -19 426 0 64 26 122 122
103 171 -3 9 -18 15 -35 15 l-29 0 15 43 c10 27 13 62 10 99 -16 184 -194 299
-370 241z m167 -35 c59 -18 138 -99 155 -161 14 -49 11 -112 -8 -159 -8 -20
-17 -28 -36 -28 -25 0 -25 0 -8 27 12 18 18 46 18 87 0 77 -26 130 -84 171
-37 26 -51 30 -111 30 -60 0 -74 -4 -111 -30 -58 -41 -84 -94 -84 -171 0 -41
6 -69 18 -87 17 -27 17 -27 -8 -27 -29 0 -44 28 -52 97 -12 96 47 195 141 239
57 26 108 30 170 12z m-165 -163 c-35 -47 -65 -81 -67 -75 -8 24 10 81 35 111
25 29 83 63 92 54 2 -2 -25 -43 -60 -90z m161 76 c0 -10 -179 -236 -190 -239
-5 -2 -13 4 -16 12 -4 11 23 55 79 130 71 94 90 113 107 109 11 -3 20 -8 20
-12z m60 -46 c18 -22 11 -37 -60 -130 -61 -79 -67 -84 -102 -85 -21 0 -38 3
-38 6 0 10 172 224 180 224 4 0 13 -7 20 -15z m26 -129 c-9 -46 -42 -86 -72
-86 -13 0 -24 2 -24 5 0 10 94 124 98 120 3 -2 1 -20 -2 -39z m-276 -146 c0
-11 9 -29 20 -40 29 -29 171 -29 200 0 11 11 20 29 20 40 0 18 7 20 81 20 79
0 80 0 74 -22 -26 -86 -60 -98 -275 -98 -215 0 -249 12 -275 98 -6 22 -5 22
74 22 74 0 81 -2 81 -20z m195 0 c0 -12 -16 -16 -69 -18 -69 -3 -95 6 -81 28
4 7 33 10 78 8 56 -2 72 -6 72 -18z"/>
</g>
</svg>
