<?xml version="1.0" standalone="no"?>
<!DOCTYPE svg PUBLIC "-//W3C//DTD SVG 20010904//EN"
 "http://www.w3.org/TR/2001/REC-SVG-20010904/DTD/svg10.dtd">
<svg version="1.0" xmlns="http://www.w3.org/2000/svg"
 width="840.000000pt" height="1060.000000pt" viewBox="0 0 840.000000 1060.000000"
 preserveAspectRatio="xMidYMid meet">

<g transform="translate(0.000000,1060.000000) scale(0.100000,-0.100000)"
fill="#000000" stroke="none">
<path d="M651 10180 c-204 -54 -373 -223 -425 -427 -15 -56 -16 -422 -14
-3955 l3 -3893 24 -64 c67 -179 221 -322 407 -378 55 -17 165 -18 1729 -21
l1670 -2 45 22 c78 40 116 123 107 235 -5 70 -37 135 -80 167 l-28 21 -1512 5
-1512 5 -59 22 c-137 52 -239 141 -297 258 -63 129 -59 -133 -59 3646 0 2442
3 3463 11 3505 36 196 176 352 368 408 50 15 347 16 3171 16 2824 0 3121 -1
3171 -16 166 -49 292 -169 351 -334 l23 -65 5 -2396 c5 -2379 5 -2397 25
-2419 36 -40 95 -63 175 -68 95 -5 151 10 201 55 l39 35 0 2572 c0 2851 6
2617 -67 2766 -26 55 -55 94 -107 145 -82 81 -163 127 -272 155 -76 20 -123
20 -3548 19 -3398 0 -3473 -1 -3545 -19z"/>
<path d="M3417 8856 c-88 -32 -111 -82 -105 -233 3 -112 14 -137 78 -180 l33
-23 776 0 c880 0 823 -5 869 81 21 40 23 54 20 156 -3 121 -12 142 -72 187
-27 21 -37 21 -794 23 -633 2 -774 0 -805 -11z"/>
<path d="M1466 7507 c-62 -35 -76 -73 -76 -203 0 -99 3 -115 23 -144 12 -19
38 -43 57 -54 34 -21 48 -21 592 -21 549 0 557 0 585 21 15 11 38 36 51 55 22
32 23 42 20 154 -3 105 -6 124 -25 151 -47 65 -33 64 -640 64 l-548 0 -39 -23z"/>
<path d="M3100 7512 c-19 -9 -45 -32 -57 -51 -21 -30 -23 -46 -23 -148 0 -134
12 -170 69 -205 l36 -23 1815 0 c1743 0 1816 1 1845 18 62 38 70 60 73 197 3
117 2 127 -20 160 -13 19 -39 43 -58 52 -33 17 -141 18 -1840 18 -1699 0
-1807 -1 -1840 -18z"/>
<path d="M1466 6316 c-62 -37 -75 -72 -76 -202 0 -122 11 -152 73 -198 28 -21
36 -21 590 -21 535 0 563 1 594 19 17 11 41 37 53 58 19 35 21 50 18 156 -3
102 -6 121 -25 148 -47 65 -33 64 -640 64 l-548 0 -39 -24z"/>
<path d="M3100 6322 c-19 -9 -45 -32 -57 -51 -21 -30 -23 -46 -23 -148 0 -134
12 -170 69 -205 l36 -23 1815 0 c1797 0 1815 0 1849 20 58 34 71 73 71 206 0
104 -2 119 -22 149 -13 18 -39 41 -58 51 -33 18 -102 19 -1840 19 -1698 0
-1807 -1 -1840 -18z"/>
<path d="M6270 4128 l0 -432 58 -56 c80 -77 152 -97 241 -65 50 17 86 44 118
87 22 31 23 39 23 215 0 153 2 183 14 183 25 0 158 -51 241 -93 273 -136 517
-384 644 -650 94 -199 134 -376 134 -602 2 -399 -132 -725 -413 -1005 -220
-220 -460 -344 -769 -395 -81 -14 -138 -16 -265 -12 -217 7 -375 44 -551 128
-394 187 -677 544 -776 979 -26 114 -36 341 -19 462 47 349 220 641 607 1024
199 198 203 203 203 243 0 88 -70 166 -178 197 -77 23 -124 8 -257 -81 -410
-274 -697 -705 -797 -1197 -20 -99 -23 -142 -23 -353 0 -272 14 -368 82 -578
47 -143 164 -375 250 -497 79 -110 246 -287 353 -373 264 -213 589 -349 933
-392 914 -113 1776 475 2007 1370 225 872 -198 1773 -1012 2155 -223 104 -520
170 -768 170 l-80 0 0 -432z"/>
<path d="M5690 3633 c5 -16 47 -154 94 -308 46 -154 114 -379 151 -500 37
-121 77 -238 90 -261 33 -56 106 -121 173 -152 48 -23 71 -27 147 -27 82 0 97
3 156 32 209 103 274 365 138 552 -16 23 -62 65 -101 94 -149 109 -843 596
-850 597 -4 0 -3 -12 2 -27z"/>
</g>
</svg>
