<?xml version="1.0" standalone="no"?>
<!DOCTYPE svg PUBLIC "-//W3C//DTD SVG 20010904//EN"
 "http://www.w3.org/TR/2001/REC-SVG-20010904/DTD/svg10.dtd">
<svg version="1.0" xmlns="http://www.w3.org/2000/svg"
 width="128.000000pt" height="128.000000pt" viewBox="0 0 128.000000 128.000000"
 preserveAspectRatio="xMidYMid meet">

<g transform="translate(0.000000,128.000000) scale(0.100000,-0.100000)"
fill="#000000" stroke="none">
<path d="M130 1177 c0 -101 1 -103 33 -142 l32 -39 0 -356 0 -356 -33 -39
c-31 -39 -32 -41 -32 -142 0 -116 0 -115 70 -79 l44 24 51 -25 51 -25 50 25
49 25 49 -25 49 -25 50 26 50 25 46 -26 47 -26 49 26 49 25 51 -25 51 -25 50
25 49 25 45 -24 c70 -36 70 -37 70 79 0 94 -2 104 -25 132 -14 17 -32 45 -40
63 -8 18 -19 31 -25 27 -19 -12 -10 -50 25 -99 19 -27 35 -53 35 -58 0 -4
-216 -8 -480 -8 -264 0 -480 4 -480 8 0 5 16 31 35 58 33 46 35 54 35 126 l0
78 410 0 410 0 0 -25 c0 -15 6 -25 15 -25 12 0 15 46 17 308 l3 308 33 39 c31
39 32 41 32 142 0 116 0 115 -70 79 l-44 -24 -51 25 -51 25 -50 -25 -49 -25
-50 25 -49 26 -47 -26 -46 -26 -50 25 -50 26 -49 -25 -49 -25 -49 25 -50 25
-51 -25 -51 -25 -44 24 c-70 36 -70 37 -70 -79z m260 38 l50 -25 50 25 50 25
50 -25 50 -25 50 25 50 25 50 -25 50 -25 50 25 50 25 50 -25 50 -25 40 20 40
20 0 -35 0 -35 -480 0 -480 0 0 35 0 35 40 -20 40 -20 47 24 c27 14 49 25 51
26 1 0 25 -11 52 -25z m730 -103 c0 -5 -16 -31 -35 -58 -33 -46 -35 -54 -35
-126 l0 -78 -307 -2 c-284 -3 -308 -4 -311 -20 -3 -17 17 -18 307 -18 l311 0
0 -170 0 -170 -410 0 -410 0 0 170 0 170 68 0 c74 0 88 5 71 27 -7 8 -34 13
-75 13 l-64 0 0 78 c0 72 -2 80 -35 126 -19 27 -35 53 -35 58 0 4 216 8 480 8
264 0 480 -4 480 -8z m0 -1027 l0 -35 -40 20 -40 20 -50 -25 -50 -25 -50 25
-50 25 -50 -25 -50 -25 -50 25 -50 25 -50 -25 -50 -25 -50 25 -50 25 -50 -25
-50 -25 -50 25 -50 25 -40 -20 -40 -20 0 35 0 35 480 0 480 0 0 -35z"/>
<path d="M333 709 c-16 -6 -23 -17 -23 -34 0 -20 8 -29 35 -41 19 -8 35 -19
35 -24 0 -17 -27 -22 -50 -10 -26 14 -37 6 -20 -15 18 -22 77 -19 90 4 14 28
4 45 -36 64 -41 20 -36 41 8 32 22 -5 29 -4 26 5 -6 19 -40 29 -65 19z"/>
<path d="M437 713 c-4 -3 -7 -37 -7 -75 0 -53 3 -68 14 -68 10 0 16 13 18 42
l3 42 28 -43 c16 -23 34 -41 40 -38 14 4 21 68 12 114 -9 47 -25 31 -25 -25
l0 -47 -35 53 c-38 55 -38 56 -48 45z"/>
<path d="M622 704 c-21 -43 -45 -124 -38 -131 4 -4 12 0 17 10 12 21 57 23 65
2 5 -13 34 -22 34 -11 0 14 -45 123 -56 135 -10 11 -14 10 -22 -5z m28 -71 c0
-7 -7 -13 -16 -13 -11 0 -14 5 -10 16 3 9 6 21 6 27 0 16 20 -14 20 -30z"/>
<path d="M763 710 c-44 -18 -57 -86 -23 -120 25 -25 88 -28 97 -5 7 21 -4 32
-19 17 -17 -17 -42 -15 -61 6 -22 24 -21 45 3 67 14 12 28 16 50 12 37 -8 40
10 4 23 -14 6 -26 10 -27 9 -1 0 -12 -4 -24 -9z"/>
<path d="M886 713 c-3 -3 -6 -37 -6 -75 0 -54 3 -68 15 -68 9 0 15 9 15 22 l0
21 23 -21 c23 -22 47 -29 47 -14 0 5 -14 21 -30 37 l-30 29 27 28 c33 34 22
50 -12 18 -25 -23 -25 -23 -25 -2 0 22 -13 36 -24 25z"/>
</g>
</svg>
